<svg viewBox="0 0 48 48" xmlns="http://www.w3.org/2000/svg" fill="#000000"><g stroke-width="0"></g><g stroke-linecap="round" stroke-linejoin="round"></g><g><g><g><rect width="48" height="48" fill="none"></rect></g><g><g><path d="M18,39a9,9,0,0,1-1.4-17.9l3.9-3.9L18,17A13,13,0,1,0,30.5,33.5H26.3A9.1,9.1,0,0,1,18,39Z"></path> <circle cx="39" cy="9" r="4"></circle><path d="M34,25.5H26.5l9.9-9.9L27.6,6.8a2.9,2.9,0,0,0-4.2,0l-3.8,3.8a2,2,0,0,0,2.8,2.8l3.1-3.1L29.2,14,18.8,24.4a2.9,2.9,0,0,0-.7,3.2,3,3,0,0,0,2.8,1.9H33V40a2,2,0,0,0,4,0V28.5A2.9,2.9,0,0,0,34,25.5Z"></path></g></g></g></g></svg>