<svg version="1.1" xmlns="http://www.w3.org/2000/svg" xmlns:xlink="http://www.w3.org/1999/xlink" width="273.34442" height="182.55436" viewBox="0,0,273.34442,182.55436"><g transform="translate(-103.2536,-74.95948)"><g data-paper-data="{&quot;isPaintingLayer&quot;:true}" fill="#000000" fill-rule="nonzero" stroke="#000000" stroke-linejoin="miter" stroke-miterlimit="10" stroke-dasharray="" stroke-dashoffset="0" style="mix-blend-mode: normal"><g><path d="M156.81938,225.90129l42.66796,-0.37357l20.73421,0.03924c0,0 3.70032,1.64459 6.6612,7.6159c1.09121,2.20068 3.11751,6.13669 3.15728,8.18896c0.04335,2.23727 -0.11394,1.4481 -0.22077,1.83136c-0.07938,0.28478 -0.27803,1.09817 -0.88403,1.99642c-0.28532,0.42291 -0.91566,1.11013 -1.7746,1.65982c-0.72658,0.46499 -1.69536,0.79227 -1.9487,1.18219c-0.47024,0.72373 -0.35394,2.12096 -0.5507,2.80988c-0.31909,1.11723 -1.38401,2.15756 -1.6501,2.43032c-0.53697,0.55042 -1.66216,1.32995 -2.84429,1.69733c-1.40399,0.43633 -2.88831,0.40472 -3.56293,0.30929c-0.91295,-0.12913 -2.00585,-0.37142 -2.66914,-0.40003c-0.27412,-0.01182 -0.44274,0.77952 -1.01285,1.04087c-0.54545,0.25004 -1.22614,0.93708 -1.9148,1.12085c-1.06582,0.28442 -1.23549,0.45951 -1.86771,0.43255c-0.50057,-0.02134 -1.1767,0.09741 -1.83058,-0.12195c-0.29988,-0.1006 -1.51796,-0.56563 -2.52699,-1.38222c-1.12804,-0.91289 -2.06383,-2.19614 -2.55718,-2.50699c-0.47271,-0.29785 -2.30451,-2.43356 -4.12212,-4.96794c-1.37264,-1.91394 -2.67782,-4.11461 -3.71943,-5.58687c-1.52789,-2.1596 -2.88771,-5.39038 -5.31652,-7.44049c-4.36356,-3.6832 -12.1709,-6.76409 -16.12135,-8.05055c-6.32171,-2.05866 -16.12587,-1.52436 -16.12587,-1.52436z" stroke-width="0" stroke-linecap="butt"/><path d="M305.27016,227.44354c-3.95045,1.28646 -11.75779,4.36735 -16.12135,8.05055c-2.42881,2.05012 -3.78863,5.28089 -5.31652,7.44049c-1.04161,1.47226 -2.34679,3.67293 -3.71943,5.58687c-1.81761,2.53438 -3.6494,4.67009 -4.12212,4.96794c-0.49334,0.31085 -1.42914,1.5941 -2.55718,2.50699c-1.00903,0.81659 -2.2271,1.28162 -2.52699,1.38222c-0.65388,0.21936 -1.33001,0.10061 -1.83058,0.12195c-0.63223,0.02696 -0.8019,-0.14813 -1.86772,-0.43255c-0.68866,-0.18377 -1.36935,-0.87081 -1.91479,-1.12085c-0.57011,-0.26135 -0.73873,-1.05269 -1.01286,-1.04087c-0.66328,0.0286 -1.75619,0.27089 -2.66913,0.40003c-0.67462,0.09543 -2.15893,0.12703 -3.56293,-0.30929c-1.18214,-0.36738 -2.30733,-1.14691 -2.84429,-1.69733c-0.2661,-0.27276 -1.33102,-1.31309 -1.6501,-2.43032c-0.19676,-0.68892 -0.08046,-2.08615 -0.5507,-2.80988c-0.25334,-0.38992 -1.22212,-0.7172 -1.9487,-1.18219c-0.85895,-0.5497 -1.48928,-1.23692 -1.77461,-1.65983c-0.606,-0.89825 -0.80465,-1.71163 -0.88403,-1.99641c-0.10683,-0.38325 -0.26412,0.40591 -0.22077,-1.83136c0.03977,-2.05227 2.06607,-5.98828 3.15727,-8.18896c2.96087,-5.97132 6.6612,-7.6159 6.6612,-7.6159l17.64424,-0.11286l44.7766,-0.02385c0,0 -8.82283,-0.06325 -15.14454,1.99541z" data-paper-data="{&quot;index&quot;:null}" stroke-width="0" stroke-linecap="butt"/><path d="M374.84802,227.19667h-269.84442" stroke-width="3.5" stroke-linecap="round"/><path d="M123.8266,226.32124c0,0 0.18344,-5.05888 0.92767,-10.58014c0.79384,-5.88924 1.7478,-12.78249 2.30029,-16.12113c0.21386,-1.29235 1.55541,-9.96075 3.13958,-21.67282c0.6533,-4.82991 2.41379,-22.44907 3.73109,-35.00081c0.64654,-6.16045 1.31321,-11.35398 1.44287,-12.72178c0.95013,-10.02295 2.30435,-18.20729 2.60142,-21.5511c0.57539,-6.4766 1.88747,-13.73382 3.11624,-20.52578c0.32378,-1.78972 1.00467,-3.31345 1.37569,-4.84687c0.1336,-0.55219 1.38499,-2.61972 1.4578,-2.87373c0.31273,-1.09111 2.61875,-2.54875 2.90192,-3.33638c0.15232,-0.42369 4.0956,-2.87601 11.49319,-1.76072c1.303,0.19644 2.8519,0.46389 4.4557,1.05945c0.39259,0.14579 4.54206,1.42932 9.06624,3.999c7.27923,4.13451 16.17406,10.30744 16.79464,10.74193c1.80092,1.26091 6.58491,5.18279 9.63904,7.8545c2.44225,2.13644 3.38769,3.22929 3.70155,3.3256c0.78191,0.23991 0.76371,0.98003 0.96439,0.8514c0.00561,-0.0036 0.3956,0.5346 1.0985,0.34553c1.45665,-0.39181 4.39083,-0.50016 7.89876,-0.78661c4.1951,-0.34257 9.40203,-0.727 14.53257,-1.0037c3.46407,-0.18682 6.90667,-0.45839 9.95592,-0.46245c2.10949,-0.00281 6.32962,-0.07122 10.46773,0.10943c5.08467,0.22198 10.1521,0.71337 12.32873,0.8637c5.88,0.40611 10.4916,1.07107 11.17935,1.10645c1.01578,0.05226 2.33122,0.23404 3.17229,0.30929c0.43554,0.03897 0.95301,-0.0552 1.02663,-0.10615c0.28141,-0.19474 0.37429,-0.3326 0.67037,-0.58645c0.67623,-0.57977 1.32155,-1.2191 1.61998,-1.48587c0.77554,-0.69324 2.88668,-2.5392 5.36678,-4.64124c2.12322,-1.79957 4.54438,-3.81432 6.32164,-5.14637c3.53219,-2.64736 8.55061,-5.78708 9.99756,-6.71914c3.00785,-1.93752 5.58718,-3.36621 6.84821,-4.06604c2.18171,-1.21079 4.60129,-2.31704 5.59045,-2.77201c0.95286,-0.43828 2.94108,-1.41317 5.44981,-2.07551c2.46963,-0.65202 5.46596,-0.99477 5.67991,-1.02331c1.34366,-0.17923 2.22655,0.08496 3.48099,0.11082c0.59339,0.01223 2.05845,0.31239 3.65864,1.20484c1.48528,0.82837 3.12789,2.24885 3.27518,2.37754c1.36455,1.19237 2.31337,3.26684 2.61198,3.79562c0.764,1.35289 0.95718,3.17507 1.34499,4.93415c0.6806,3.08715 1.06266,6.78197 1.73921,10.85588c1.29995,7.82773 2.53695,17.35054 3.84377,26.35602c0.56554,3.89718 1.07109,7.55096 1.47624,11.26996c0.22038,2.02296 0.24468,4.06522 0.61504,6.17646c0.47023,2.68055 3.2727,33.25235 3.61158,35.58179c0.71544,4.91789 1.45449,9.43243 1.72773,11.22342c0.76072,4.98624 1.27888,10.60709 1.48928,11.84847c0.56815,3.35206 1.1768,8.00274 2.02682,13.66613c0.77094,5.13649 0.97481,11.47865 0.97481,11.47865z" stroke-width="0" stroke-linecap="butt"/><path d="M131.46304,172.89292l-18.1048,-6.94755" stroke-width="5.5" stroke-linecap="round"/><path d="M109.09081,182.16003l20.67832,1.42609" stroke-width="5.5" stroke-linecap="round"/><path d="M113.36908,197.49051l14.97395,-3.20871" stroke-width="5.5" stroke-linecap="round"/><path d="M364.69216,166.77082l-18.96819,7.49361" stroke-width="5.5" stroke-linecap="round"/><path d="M370.78071,182.22638l-23.88587,1.63923" stroke-width="5.5" stroke-linecap="round"/><path d="M348.76825,193.46679l17.79731,4.21515" stroke-width="5.5" stroke-linecap="round"/></g></g></g></svg>