<svg version="1.1" xmlns="http://www.w3.org/2000/svg" viewBox="0 0 32 32">
<style type="text/css">.ks0{fill:none;stroke:#000000;stroke-width:2;stroke-linecap:round;stroke-linejoin:round;stroke-miterlimit:10;}</style>
<path class="ks0" d="M23,31H9c-4.4,0-8-3.6-8-8V9c0-4.4,3.6-8,8-8h14c4.4,0,8,3.6,8,8v14C31,27.4,27.4,31,23,31z"/>
<path class="ks0" d="M19.8,16l3.7-4.7C24.8,9.5,23.5,7,21.2,7c-0.9,0-1.7,0.4-2.3,1.1L14,15v-5c0-1.6-1.4-3-3.1-3C9.3,7,8,8.3,8,9.8
	v12.4c0,1.6,1.3,2.8,2.9,2.8c1.6,0,3.1-1.4,3.1-3v-4l4.9,5.9c0.5,0.7,1.4,1.1,2.3,1.1c2.3,0,3.7-2.5,2.3-4.3L19.8,16z"/></svg>