<svg xmlns="http://www.w3.org/2000/svg" viewBox="0 14.550000190734863 49.20000076293945 36.04999923706055"><g><g fill="#000000"><g><path d="M0 50L0 15.15L9.35 15.15Q12.90 15.15 15.80 16.23Q18.70 17.30 20.43 19.96Q22.15 22.63 22.15 27.35Q22.15 30.77 20.85 33.81Q19.55 36.85 16.76 38.75Q13.98 40.65 9.55 40.65L6.45 40.65L6.45 50L0 50M8.95 20.20L6.45 20.20L6.45 35.40L9.10 35.40Q12.40 35.40 14.05 33.42Q15.70 31.45 15.70 27.70Q15.70 23.88 14.20 22.04Q12.70 20.20 8.95 20.20ZM39.65 50.60Q36.93 50.60 34.40 49.49Q31.88 48.38 29.86 46.11Q27.85 43.85 26.68 40.35Q25.50 36.85 25.50 32.10Q25.50 26.40 27.49 22.49Q29.48 18.57 32.81 16.56Q36.15 14.55 40.20 14.55Q42.95 14.55 44.69 15.07Q46.43 15.60 47.46 16.32Q48.50 17.05 49.15 17.65L46.35 22.90Q45.28 21.72 44.13 21.01Q42.98 20.30 40.45 20.30Q37.90 20.30 36.11 21.77Q34.33 23.25 33.39 25.84Q32.45 28.42 32.45 31.75Q32.45 38.27 34.64 41.59Q36.83 44.90 39.90 44.90Q42.28 44.90 43.95 44.23Q45.63 43.55 46.45 42.70L49.20 47.65Q48.50 48.23 47.34 48.91Q46.18 49.60 44.31 50.10Q42.45 50.60 39.65 50.60Z"/></g></g></g></svg>